<?xml version="1.0" encoding="UTF-8"?><svg id="Ebene_2" xmlns="http://www.w3.org/2000/svg" viewBox="0 0 2606.8997 633.8178"><g id="Components"><g id="_5abde9d4-f168-41c0-a09a-aa3dde0b7759_1"><path d="M811.625,261.4081c16.4475,0,30.8764,3.2148,43.2868,9.6442,12.5599,6.4295,22.2041,15.6251,28.9326,27.5869,6.878,11.8123,10.3171,25.5683,10.3171,41.2682s-3.439,29.4559-10.3171,41.2682c-6.7285,11.6627-16.3727,20.7088-28.9326,27.1383-12.4104,6.4294-26.8393,9.6442-43.2868,9.6442h-54.7253v-156.5501h54.7253ZM810.5035,391.2684c16.4475,0,29.1569-4.4856,38.1283-13.457,8.9713-8.9713,13.457-21.606,13.457-37.904s-4.4857-29.0074-13.457-38.1283c-8.9713-9.2704-21.6808-13.9056-38.1283-13.9056h-22.2041v103.3948h22.2041Z" style="fill:#671f82; stroke-width:0px;"/><path d="M933.591,278.9023c-5.5324,0-10.1675-1.7196-13.9056-5.1585-3.5885-3.5886-5.3828-7.9995-5.3828-13.2327s1.7943-9.5695,5.3828-13.0084c3.7381-3.5886,8.3733-5.3828,13.9056-5.3828s10.0928,1.7943,13.6813,5.3828c3.7381,3.439,5.6071,7.7752,5.6071,13.0084s-1.869,9.6442-5.6071,13.2327c-3.5885,3.439-8.149,5.1585-13.6813,5.1585ZM949.0665,293.705v124.2532h-31.3997v-124.2532h31.3997Z" style="fill:#671f82; stroke-width:0px;"/><path d="M1095.5939,353.1402c0,4.4856-.299,8.5227-.8971,12.1113h-90.8349c.7476,8.9713,3.8876,15.9989,9.4199,21.0826,5.5323,5.0838,12.3356,7.6257,20.4098,7.6257,11.6628,0,19.9613-5.009,24.8955-15.027h33.8669c-3.5886,11.9618-10.4666,21.8303-20.6341,29.6054-10.1676,7.6257-22.6527,11.4385-37.4554,11.4385-11.9618,0-22.7274-2.6167-32.2969-7.85-9.4199-5.3828-16.8212-12.9337-22.2041-22.6526-5.2333-9.719-7.8499-20.9332-7.8499-33.6426,0-12.8589,2.6166-24.1479,7.8499-33.8669,5.2333-9.7189,12.5599-17.1951,21.9799-22.4283,9.4199-5.2333,20.2603-7.85,32.5211-7.85,11.8123,0,22.3536,2.5419,31.624,7.6257,9.4199,5.0838,16.6717,12.3356,21.7555,21.7556,5.2333,9.2704,7.85,19.9612,7.85,32.0726ZM1063.0727,344.1688c-.1495-8.0742-3.0652-14.5036-8.747-19.2884-5.6819-4.9342-12.6346-7.4014-20.8584-7.4014-7.7752,0-14.3541,2.3923-19.737,7.1771-5.2333,4.6352-8.448,11.1394-9.6442,19.5127h58.9866Z" style="fill:#671f82; stroke-width:0px;"/><path d="M1226.0079,419.5282c-10.9151,0-20.7836-1.869-29.6054-5.6071-8.6722-3.7381-15.5503-9.1209-20.6341-16.1485-5.0838-7.0275-7.7004-15.3261-7.8499-24.8954h33.6425c.4486,6.4294,2.6914,11.5132,6.7285,15.2513,4.1866,3.7381,9.8685,5.6071,17.0455,5.6071,7.3266,0,13.0832-1.7195,17.2698-5.1585,4.1867-3.5886,6.28-8.2238,6.28-13.9057,0-4.6351-1.4205-8.448-4.2614-11.4385-2.8409-2.9904-6.4295-5.3081-10.7656-6.9528-4.1866-1.7943-10.018-3.7381-17.4941-5.8314-10.1675-2.9904-18.466-5.9062-24.8955-8.7471-6.2799-2.9904-11.7375-7.4014-16.3727-13.2327-4.4856-5.981-6.7285-13.9057-6.7285-23.7741,0-9.2704,2.3176-17.3446,6.9528-24.2226,4.6352-6.878,11.1394-12.1114,19.5127-15.6999,8.3733-3.7381,17.9428-5.6071,28.7083-5.6071,16.1485,0,29.2317,3.9623,39.2497,11.887,10.1675,7.7752,15.7746,18.6903,16.8212,32.7454h-34.5397c-.299-5.3828-2.6166-9.7937-6.9528-13.2327-4.1866-3.5885-9.7938-5.3828-16.8213-5.3828-6.1304,0-11.0646,1.57-14.8027,4.7099-3.5885,3.14-5.3828,7.7005-5.3828,13.6814,0,4.1866,1.3457,7.7004,4.0371,10.5413,2.8409,2.6914,6.2799,4.9342,10.317,6.7285,4.1867,1.6447,10.018,3.5885,17.4941,5.8314,10.1675,2.9904,18.466,5.9809,24.8955,8.9713,6.4294,2.9904,11.9618,7.4761,16.597,13.457,4.6351,5.9809,6.9528,13.8308,6.9528,23.5498,0,8.3732-2.168,16.1484-6.5042,23.3255-4.3361,7.1771-10.6908,12.9337-19.0641,17.2698-8.3732,4.1866-18.3165,6.2799-29.8298,6.2799Z" style="fill:#671f82; stroke-width:0px;"/><path d="M1345.1867,319.4976v60.1081c0,4.1866.9719,7.2518,2.9157,9.1956,2.0933,1.7943,5.5324,2.6914,10.3171,2.6914h14.5784v26.4655h-19.737c-26.4655,0-39.6982-12.8589-39.6982-38.5768v-59.8838h-14.8027v-25.7926h14.8027v-30.7269h31.624v30.7269h27.8112v25.7926h-27.8112Z" style="fill:#671f82; stroke-width:0px;"/><path d="M1511.0889,353.1402c0,4.4856-.299,8.5227-.8971,12.1113h-90.8349c.7476,8.9713,3.8876,15.9989,9.4199,21.0826,5.5324,5.0838,12.3356,7.6257,20.4098,7.6257,11.6628,0,19.9613-5.009,24.8955-15.027h33.8669c-3.5886,11.9618-10.4666,21.8303-20.6341,29.6054-10.1675,7.6257-22.6527,11.4385-37.4554,11.4385-11.9618,0-22.7274-2.6167-32.2968-7.85-9.4199-5.3828-16.8213-12.9337-22.2041-22.6526-5.2333-9.719-7.85-20.9332-7.85-33.6426,0-12.8589,2.6166-24.1479,7.85-33.8669,5.2333-9.7189,12.5598-17.1951,21.9798-22.4283,9.4199-5.2333,20.2603-7.85,32.5211-7.85,11.8123,0,22.3537,2.5419,31.624,7.6257,9.4199,5.0838,16.6718,12.3356,21.7556,21.7556,5.2333,9.2704,7.8499,19.9612,7.8499,32.0726ZM1478.5678,344.1688c-.1496-8.0742-3.0652-14.5036-8.7471-19.2884-5.6819-4.9342-12.6346-7.4014-20.8584-7.4014-7.7751,0-14.3541,2.3923-19.737,7.1771-5.2333,4.6352-8.448,11.1394-9.6442,19.5127h58.9867Z" style="fill:#671f82; stroke-width:0px;"/><path d="M1549.9321,278.9023c-5.5324,0-10.1675-1.7196-13.9056-5.1585-3.5886-3.5886-5.3828-7.9995-5.3828-13.2327s1.7943-9.5695,5.3828-13.0084c3.7381-3.5886,8.3732-5.3828,13.9056-5.3828s10.0928,1.7943,13.6814,5.3828c3.738,3.439,5.607,7.7752,5.607,13.0084s-1.869,9.6442-5.607,13.2327c-3.5886,3.439-8.1491,5.1585-13.6814,5.1585ZM1565.4077,293.705v124.2532h-31.3998v-124.2532h31.3998Z" style="fill:#671f82; stroke-width:0px;"/><path d="M1665.2864,291.9107c14.8027,0,26.7645,4.7099,35.8854,14.1299,9.1209,9.2704,13.6814,22.2788,13.6814,39.0253v72.8923h-31.3997v-68.6308c0-9.8685-2.4672-17.4194-7.4014-22.6526-4.9342-5.3828-11.6626-8.0743-20.1854-8.0743-8.6724,0-15.5504,2.6914-20.6342,8.0743-4.9342,5.2333-7.4013,12.7841-7.4013,22.6526v68.6308h-31.3997v-124.2532h31.3997v15.4756c4.1866-5.3828,9.4946-9.5695,15.9241-12.5599,6.5789-3.14,13.7561-4.7099,21.5312-4.7099Z" style="fill:#671f82; stroke-width:0px;"/><path d="M1776.1129,312.9934c4.037-6.5789,9.2703-11.7375,15.6998-15.4756,6.5791-3.7381,14.0551-5.6071,22.4285-5.6071v32.9697h-8.2985c-9.8685,0-17.3446,2.3176-22.4285,6.9528-4.9342,4.6352-7.4013,12.7094-7.4013,24.2227v61.9023h-31.3997v-124.2532h31.3997v19.2884Z" style="fill:#671f82; stroke-width:0px;"/><path d="M1950.8954,353.1402c0,4.4856-.2992,8.5227-.8972,12.1113h-90.8349c.7476,8.9713,3.8876,15.9989,9.4199,21.0826,5.5324,5.0838,12.3357,7.6257,20.4099,7.6257,11.6628,0,19.9613-5.009,24.8955-15.027h33.8668c-3.5884,11.9618-10.4665,21.8303-20.634,29.6054-10.1675,7.6257-22.6526,11.4385-37.4553,11.4385-11.9618,0-22.7275-2.6167-32.2969-7.85-9.4199-5.3828-16.8213-12.9337-22.204-22.6526-5.2333-9.719-7.8499-20.9332-7.8499-33.6426,0-12.8589,2.6166-24.1479,7.8499-33.8669,5.2333-9.7189,12.5598-17.1951,21.9797-22.4283,9.42-5.2333,20.2603-7.85,32.5212-7.85,11.8122,0,22.3536,2.5419,31.624,7.6257,9.4199,5.0838,16.6717,12.3356,21.7554,21.7556,5.2333,9.2704,7.85,19.9612,7.85,32.0726ZM1918.3742,344.1688c-.1494-8.0742-3.0652-14.5036-8.747-19.2884-5.6819-4.9342-12.6347-7.4014-20.8585-7.4014-7.7752,0-14.3541,2.3923-19.737,7.1771-5.2333,4.6352-8.4479,11.1394-9.6442,19.5127h58.9866Z" style="fill:#671f82; stroke-width:0px;"/><path d="M1989.7385,278.9023c-5.5323,0-10.1675-1.7196-13.9057-5.1585-3.5884-3.5886-5.3827-7.9995-5.3827-13.2327s1.7943-9.5695,5.3827-13.0084c3.7381-3.5886,8.3734-5.3828,13.9057-5.3828s10.0928,1.7943,13.6814,5.3828c3.738,3.439,5.607,7.7752,5.607,13.0084s-1.869,9.6442-5.607,13.2327c-3.5886,3.439-8.1491,5.1585-13.6814,5.1585ZM2005.2141,293.705v124.2532h-31.3997v-124.2532h31.3997Z" style="fill:#671f82; stroke-width:0px;"/><path d="M2105.0928,291.9107c14.8027,0,26.7645,4.7099,35.8854,14.1299,9.1209,9.2704,13.6814,22.2788,13.6814,39.0253v72.8923h-31.3997v-68.6308c0-9.8685-2.4672-17.4194-7.4014-22.6526-4.9342-5.3828-11.6626-8.0743-20.1854-8.0743-8.6724,0-15.5504,2.6914-20.6342,8.0743-4.9342,5.2333-7.4013,12.7841-7.4013,22.6526v68.6308h-31.3997v-124.2532h31.3997v15.4756c4.1866-5.3828,9.4946-9.5695,15.9241-12.5599,6.5789-3.14,13.7561-4.7099,21.5312-4.7099Z" style="fill:#671f82; stroke-width:0px;"/><path d="M2200.4437,278.9023c-5.5323,0-10.1675-1.7196-13.9055-5.1585-3.5886-3.5886-5.3828-7.9995-5.3828-13.2327s1.7943-9.5695,5.3828-13.0084c3.738-3.5886,8.3732-5.3828,13.9055-5.3828s10.0928,1.7943,13.6814,5.3828c3.7357,3.439,5.607,7.7752,5.607,13.0084s-1.8713,9.6442-5.607,13.2327c-3.5886,3.439-8.1513,5.1585-13.6814,5.1585ZM2215.9194,293.705v124.2532h-31.3997v-124.2532h31.3997Z" style="fill:#671f82; stroke-width:0px;"/><path d="M2295.6102,291.6864c9.2704,0,17.4194,1.8691,24.4469,5.6071,7.0275,3.5886,12.56,8.2985,16.597,14.1299v-17.7184h31.624v125.1503c0,11.5133-2.3176,21.7556-6.9528,30.7269-4.6352,9.1209-11.5879,16.2979-20.8583,21.5312-9.2704,5.3828-20.4846,8.0742-33.6426,8.0742-17.6437,0-32.1474-4.1119-43.511-12.3356-11.2143-8.2238-17.5689-19.4379-19.0642-33.6425h31.1754c1.6448,5.6818,5.1585,10.1675,10.5414,13.457,5.5323,3.4391,12.1861,5.1585,19.9613,5.1585,9.1209,0,16.5221-2.7661,22.204-8.2985,5.6819-5.3828,8.5228-13.6066,8.5228-24.6712v-19.2884c-4.037,5.8314-9.6442,10.6909-16.8213,14.5785-7.0275,3.8876-15.1017,5.8314-24.2226,5.8314-10.4665,0-20.036-2.6914-28.7084-8.0743-8.6722-5.3828-15.5502-12.9337-20.634-22.6526-4.9342-9.8685-7.4014-21.1574-7.4014-33.8669,0-12.5599,2.4672-23.6993,7.4014-33.4183,5.0838-9.7189,11.8871-17.1951,20.4099-22.4283,8.6722-5.2333,18.3164-7.85,28.9325-7.85ZM2336.6541,355.8315c0-7.6256-1.4953-14.1299-4.4856-19.5127-2.9905-5.5324-7.0275-9.719-12.1114-12.5599-5.0837-2.9904-10.5413-4.4856-16.3727-4.4856s-11.2142,1.4205-16.1484,4.2614c-4.9342,2.8409-8.9714,7.0275-12.1114,12.5598-2.9904,5.3828-4.4856,11.8123-4.4856,19.2884s1.4953,14.0551,4.4856,19.737c3.14,5.5324,7.1771,9.7937,12.1114,12.7841,5.0837,2.9904,10.4665,4.4857,16.1484,4.4857,5.8315,0,11.289-1.4205,16.3727-4.2614,5.0838-2.9904,9.1209-7.1771,12.1114-12.5599,2.9904-5.5323,4.4856-12.1113,4.4856-19.737Z" style="fill:#671f82; stroke-width:0px;"/><path d="M2514.4527,353.1402c0,4.4856-.299,8.5227-.8972,12.1113h-90.8349c.7476,8.9713,3.8876,15.9989,9.42,21.0826,5.5323,5.0838,12.3355,7.6257,20.4097,7.6257,11.6628,0,19.9613-5.009,24.8955-15.027h33.8669c-3.5886,11.9618-10.4667,21.8303-20.6342,29.6054-10.1675,7.6257-22.6526,11.4385-37.4553,11.4385-11.9618,0-22.7275-2.6167-32.2969-7.85-9.4199-5.3828-16.8212-12.9337-22.204-22.6526-5.2333-9.719-7.8499-20.9332-7.8499-33.6426,0-12.8589,2.6166-24.1479,7.8499-33.8669,5.2333-9.7189,12.5598-17.1951,21.9799-22.4283,9.4199-5.2333,20.2603-7.85,32.5211-7.85,11.8122,0,22.3536,2.5419,31.624,7.6257,9.4199,5.0838,16.6717,12.3356,21.7554,21.7556,5.2334,9.2704,7.85,19.9612,7.85,32.0726ZM2481.9315,344.1688c-.1494-8.0742-3.0651-14.5036-8.747-19.2884-5.6819-4.9342-12.6347-7.4014-20.8585-7.4014-7.7752,0-14.3541,2.3923-19.737,7.1771-5.2333,4.6352-8.4479,11.1394-9.6442,19.5127h58.9866Z" style="fill:#671f82; stroke-width:0px;"/><path d="M2568.7715,312.9934c4.037-6.5789,9.2703-11.7375,15.6998-15.4756,6.5789-3.7381,14.0551-5.6071,22.4285-5.6071v32.9697h-8.2985c-9.8685,0-17.3446,2.3176-22.4285,6.9528-4.9342,4.6352-7.4013,12.7094-7.4013,24.2227v61.9023h-31.3997v-124.2532h31.3997v19.2884Z" style="fill:#671f82; stroke-width:0px;"/><g id="Logomark"><path d="M184.9155,362.6745l-74.7355,74.7356c-3.175,3.175-3.175,8.3242,0,11.4992l182.5249,182.5273c3.175,3.175,8.3242,3.175,11.4992,0l74.7354-74.7379c3.175-3.175,3.175-8.3218,0-11.4969l-182.5249-182.5273c-3.175-3.175-8.3242-3.175-11.4992,0Z" style="fill:#671f82; stroke-width:0px;"/><path d="M161.2115,170.7919c-8.4363,18.8267-13.6066,36.4097-13.6066,51.8338,0,21.6878,4.5791,42.3032,12.8216,60.9445l-50.2465-50.2466c-3.1633-3.1587-3.1633-8.3359,0-11.5015l51.0315-51.0302Z" style="fill:#671f82; stroke-width:0px;"/><path d="M359.392,360.6537l-55.1925,55.1925c-3.1586,3.1587-8.3359,3.1587-11.4945,0l-55.1925-55.1925c18.6343,8.2424,39.2543,12.8215,60.9422,12.8215s42.3079-4.5791,60.942-12.8215h-.0046Z" style="fill:#671f82; stroke-width:0px;"/><path d="M508.2837,254.8782l-182.5273,182.5273c-3.175,3.175-3.175,8.3242,0,11.4992l74.7379,74.7356c3.175,3.175,8.3219,3.175,11.4969,0l182.5273-182.5273c3.175-3.175,3.175-8.3219,0-11.4969l-74.7356-74.7379c-3.175-3.175-8.3242-3.175-11.4992,0Z" style="fill:#475567; stroke-width:0px;"/><path d="M77.1192,254.8758L2.3812,329.6114c-3.175,3.175-3.175,8.3242,0,11.4992l74.7379,74.7356c3.175,3.175,8.3218,3.175,11.4969,0l74.7379-74.7356c3.175-3.175,3.175-8.3242,0-11.4992l-74.7379-74.7356c-3.175-3.175-8.3219-3.175-11.4969,0Z" style="fill:#475567; stroke-width:0px;"/><path d="M486.722,233.3236l-50.2513,50.2512c8.2472-18.6389,12.8263-39.2613,12.8263-60.9491,0-15.4242-5.1702-33.0071-13.6066-51.8338l51.0316,51.0302c3.1656,3.1657,3.1656,8.3359,0,11.5015Z" style="fill:#671f82; stroke-width:0px;"/><path d="M419.4486,228.7374c0,66.8249-54.1763,121.0011-121.0011,121.0011s-121.0011-54.1762-121.0011-121.0011c0-63.2221,108.3057-171.5014,119.9802-227.9024.1004-.4859.5233-.835,1.0163-.835.4977,0,.9158.349,1.0139.835,11.6769,56.4074,119.9802,164.6803,119.9802,227.9024h.0117Z" style="fill:#671f82; stroke-width:0px;"/></g></g></g></svg>